<svg width="80" height="80" viewBox="0 0 80 80" fill="none" xmlns="http://www.w3.org/2000/svg">
<path d="M65.3333 28.875C67.1389 29.7917 68.7639 30.9306 70.2083 32.2917C71.6805 33.625 72.9305 35.125 73.9583 36.7917C74.9861 38.4306 75.7778 40.2083 76.3333 42.125C76.8889 44.0139 77.1667 45.9722 77.1667 48H71.8333C71.8333 45.8056 71.4028 43.7361 70.5417 41.7917C69.7083 39.8472 68.5694 38.1528 67.125 36.7083C65.6806 35.2639 63.9861 34.125 62.0417 33.2917C60.0972 32.4306 58.0278 32 55.8333 32C53.6389 32 51.5694 32.4306 49.625 33.2917C47.6806 34.125 45.9861 35.2639 44.5417 36.7083C43.0972 38.1528 41.9444 39.8472 41.0833 41.7917C40.25 43.7361 39.8333 45.8056 39.8333 48C39.8333 50.5278 39.25 52.9306 38.0833 55.2083C36.9444 57.4861 35.3611 59.375 33.3333 60.875C35.1389 61.7917 36.7639 62.9306 38.2083 64.2917C39.6806 65.625 40.9306 67.125 41.9583 68.7917C42.9861 70.4306 43.7778 72.2083 44.3333 74.125C44.8889 76.0139 45.1667 77.9722 45.1667 80H39.8333C39.8333 77.8056 39.4028 75.7361 38.5417 73.7917C37.7083 71.8472 36.5694 70.1528 35.125 68.7083C33.6806 67.2639 31.9861 66.125 30.0417 65.2917C28.0972 64.4306 26.0278 64 23.8333 64C21.6389 64 19.5694 64.4306 17.625 65.2917C15.6806 66.125 13.9861 67.2639 12.5417 68.7083C11.0972 70.1528 9.94444 71.8472 9.08333 73.7917C8.25 75.7361 7.83333 77.8056 7.83333 80H2.5C2.5 77.9722 2.77778 76.0139 3.33333 74.125C3.88889 72.2083 4.68056 70.4306 5.70833 68.7917C6.73611 67.125 7.97222 65.625 9.41667 64.2917C10.8889 62.9306 12.5278 61.7917 14.3333 60.875C12.3056 59.375 10.7083 57.4861 9.54167 55.2083C8.40278 52.9306 7.83333 50.5278 7.83333 48C7.83333 45.8056 8.25 43.7361 9.08333 41.7917C9.94444 39.8472 11.0972 38.1528 12.5417 36.7083C13.9861 35.2639 15.6806 34.125 17.625 33.2917C19.5694 32.4306 21.6389 32 23.8333 32C26.3611 32 28.7639 32.5833 31.0417 33.75C33.3194 34.8889 35.2083 36.4722 36.7083 38.5C37.7639 36.4167 39.1111 34.5556 40.75 32.9167C42.3889 31.2778 44.25 29.9306 46.3333 28.875C44.3056 27.375 42.7083 25.4861 41.5417 23.2083C40.4028 20.9306 39.8333 18.5278 39.8333 16C39.8333 13.8056 40.25 11.7361 41.0833 9.79167C41.9444 7.84722 43.0972 6.15278 44.5417 4.70833C45.9861 3.26389 47.6806 2.125 49.625 1.29167C51.5694 0.430556 53.6389 0 55.8333 0C58.0278 0 60.0972 0.430556 62.0417 1.29167C63.9861 2.125 65.6806 3.26389 67.125 4.70833C68.5694 6.15278 69.7083 7.84722 70.5417 9.79167C71.4028 11.7361 71.8333 13.8056 71.8333 16C71.8333 18.5278 71.25 20.9306 70.0833 23.2083C68.9444 25.4861 67.3611 27.375 65.3333 28.875ZM23.8333 58.6667C25.2778 58.6667 26.6528 58.3889 27.9583 57.8333C29.2639 57.25 30.3889 56.4861 31.3333 55.5417C32.3056 54.5694 33.0694 53.4444 33.625 52.1667C34.2083 50.8611 34.5 49.4722 34.5 48C34.5 46.5556 34.2083 45.1806 33.625 43.875C33.0694 42.5694 32.3056 41.4444 31.3333 40.5C30.3889 39.5278 29.2639 38.7639 27.9583 38.2083C26.6528 37.625 25.2778 37.3333 23.8333 37.3333C22.3611 37.3333 20.9722 37.625 19.6667 38.2083C18.3889 38.7639 17.2639 39.5278 16.2917 40.5C15.3472 41.4444 14.5833 42.5694 14 43.875C13.4444 45.1806 13.1667 46.5556 13.1667 48C13.1667 49.4722 13.4444 50.8611 14 52.1667C14.5833 53.4444 15.3472 54.5694 16.2917 55.5417C17.2639 56.4861 18.3889 57.25 19.6667 57.8333C20.9722 58.3889 22.3611 58.6667 23.8333 58.6667ZM45.1667 16C45.1667 17.4722 45.4444 18.8611 46 20.1667C46.5833 21.4444 47.3472 22.5694 48.2917 23.5417C49.2639 24.4861 50.3889 25.25 51.6667 25.8333C52.9722 26.3889 54.3611 26.6667 55.8333 26.6667C57.2778 26.6667 58.6528 26.3889 59.9583 25.8333C61.2639 25.25 62.3889 24.4861 63.3333 23.5417C64.3056 22.5694 65.0694 21.4444 65.625 20.1667C66.2083 18.8611 66.5 17.4722 66.5 16C66.5 14.5556 66.2083 13.1806 65.625 11.875C65.0694 10.5694 64.3056 9.44444 63.3333 8.5C62.3889 7.52778 61.2639 6.76389 59.9583 6.20833C58.6528 5.625 57.2778 5.33333 55.8333 5.33333C54.3611 5.33333 52.9722 5.625 51.6667 6.20833C50.3889 6.76389 49.2639 7.52778 48.2917 8.5C47.3472 9.44444 46.5833 10.5694 46 11.875C45.4444 13.1806 45.1667 14.5556 45.1667 16Z" fill="#00E5AD"/>
</svg>
