<svg width="80" height="80" viewBox="0 0 80 80" fill="none" xmlns="http://www.w3.org/2000/svg">
<path d="M40.5 0C43.026 0 45.4609 0.325521 47.8047 0.976562C50.1484 1.6276 52.3359 2.55208 54.3672 3.75C56.4245 4.94792 58.2865 6.38021 59.9531 8.04688C61.6198 9.71354 63.0521 11.5755 64.25 13.6328C65.4479 15.6641 66.3724 17.8516 67.0234 20.1953C67.6745 22.5391 68 24.974 68 27.5C68 31.276 67.2839 34.7786 65.8516 38.0078C64.4193 41.237 62.375 44.1667 59.7188 46.7969C57.5573 48.9323 55.8906 51.3151 54.7188 53.9453C53.5729 56.5755 53 59.4271 53 62.5V72.5C53 73.5417 52.8047 74.5182 52.4141 75.4297C52.0234 76.3411 51.4896 77.1354 50.8125 77.8125C50.1354 78.4896 49.3411 79.0234 48.4297 79.4141C47.5182 79.8047 46.5417 80 45.5 80H35.5C34.4583 80 33.4818 79.8047 32.5703 79.4141C31.6589 79.0234 30.8646 78.4896 30.1875 77.8125C29.5104 77.1354 28.9766 76.3411 28.5859 75.4297C28.1953 74.5182 28 73.5417 28 72.5V62.5C28 59.4271 27.4141 56.5755 26.2422 53.9453C25.0964 51.3151 23.4427 48.9323 21.2812 46.7969C18.625 44.1667 16.5807 41.237 15.1484 38.0078C13.7161 34.7786 13 31.276 13 27.5C13 24.974 13.3255 22.5391 13.9766 20.1953C14.6276 17.8516 15.5521 15.6641 16.75 13.6328C17.9479 11.5755 19.3802 9.71354 21.0469 8.04688C22.7135 6.38021 24.5625 4.94792 26.5938 3.75C28.651 2.55208 30.8516 1.6276 33.1953 0.976562C35.5391 0.325521 37.974 0 40.5 0ZM45.5 75C46.1771 75 46.763 74.7526 47.2578 74.2578C47.7526 73.763 48 73.1771 48 72.5V65H33V72.5C33 73.1771 33.2474 73.763 33.7422 74.2578C34.237 74.7526 34.8229 75 35.5 75H45.5ZM48.1172 60C48.4557 56.6406 49.3151 53.5938 50.6953 50.8594C52.0755 48.125 53.9375 45.5729 56.2812 43.2031C58.4427 41.0156 60.0964 38.6328 61.2422 36.0547C62.4141 33.4505 63 30.599 63 27.5C63 24.401 62.401 21.4844 61.2031 18.75C60.0312 16.0156 58.4297 13.6328 56.3984 11.6016C54.3672 9.57031 51.9844 7.96875 49.25 6.79688C46.5156 5.59896 43.599 5 40.5 5C37.401 5 34.4844 5.59896 31.75 6.79688C29.0156 7.96875 26.6328 9.57031 24.6016 11.6016C22.5703 13.6328 20.9557 16.0156 19.7578 18.75C18.5859 21.4844 18 24.401 18 27.5C18 30.599 18.5729 33.4505 19.7188 36.0547C20.8906 38.6328 22.5573 41.0156 24.7188 43.2031C27.0625 45.5729 28.9245 48.125 30.3047 50.8594C31.6849 53.5938 32.5443 56.6406 32.8828 60H48.1172Z" fill="#00E5AD"/>
</svg>
