<svg width="736" height="440" viewBox="0 0 736 440" fill="none" xmlns="http://www.w3.org/2000/svg">
<path fill-rule="evenodd" clip-rule="evenodd" d="M592 0H152V440H592V0ZM459.743 220.013L591.325 88.4049V0.674847H503.595L372.013 132.283L240.405 0.674847H152.675V88.4049L284.283 220.013L152.675 351.595V439.325H240.405L372.013 307.743L503.595 439.325H591.325V351.595L459.743 220.013Z" fill="#15162D"/>
<path d="M368.11 222.572V236.273H349.73V225.311H354.323V231.707H363.513V224.466L361.611 222.572H349.73V218.006H363.513L368.106 222.572H368.11Z" fill="#D5E6F7"/>
<path d="M388.31 222.565V236.273H383.699V233.074H374.51V236.273H369.93V225.295H374.51V228.497H383.699V224.446L381.798 222.552H369.913V217.975H383.699V217.979V217.975L388.31 222.565Z" fill="#D5E6F7"/>
<path d="M408.449 231.765V231.768L403.849 236.348H390.099V231.765H401.964L403.862 229.874V229.015H390.099V218.009H394.706V224.429H403.862V218.063H408.449V231.765Z" fill="#D5E6F7"/>
<rect width="152" height="440" fill="#15162D"/>
<rect x="592" width="144" height="440" fill="#15162D"/>
<rect opacity="0.5" x="0.429443" y="217.975" width="162.638" height="16.8712" fill="#797FA0"/>
<path d="M35 233.72V241H4.648V201.8H34.272V209.08H13.664V217.592H31.864V224.648H13.664V233.72H35ZM71.2329 210.872L58.5209 241H49.5049L36.8489 210.872H45.8649L54.2089 231.368L62.8329 210.872H71.2329ZM103.489 226.048C103.489 226.16 103.433 226.944 103.321 228.4H80.5293C80.94 230.267 81.9106 231.741 83.4413 232.824C84.972 233.907 86.876 234.448 89.1533 234.448C90.7213 234.448 92.1026 234.224 93.2973 233.776C94.5293 233.291 95.668 232.544 96.7133 231.536L101.361 236.576C98.524 239.824 94.38 241.448 88.9293 241.448C85.532 241.448 82.5266 240.795 79.9133 239.488C77.3 238.144 75.284 236.296 73.8653 233.944C72.4466 231.592 71.7373 228.923 71.7373 225.936C71.7373 222.987 72.428 220.336 73.8093 217.984C75.228 215.595 77.1506 213.747 79.5773 212.44C82.0413 211.096 84.7853 210.424 87.8093 210.424C90.7586 210.424 93.428 211.059 95.8173 212.328C98.2066 213.597 100.073 215.427 101.417 217.816C102.799 220.168 103.489 222.912 103.489 226.048ZM87.8653 217.032C85.8866 217.032 84.2253 217.592 82.8813 218.712C81.5373 219.832 80.716 221.363 80.4173 223.304H95.2573C94.9586 221.4 94.1373 219.888 92.7933 218.768C91.4493 217.611 89.8066 217.032 87.8653 217.032ZM127.617 210.424C131.351 210.424 134.356 211.544 136.633 213.784C138.948 216.024 140.105 219.347 140.105 223.752V241H131.369V225.096C131.369 222.707 130.847 220.933 129.801 219.776C128.756 218.581 127.244 217.984 125.265 217.984C123.063 217.984 121.308 218.675 120.001 220.056C118.695 221.4 118.041 223.416 118.041 226.104V241H109.305V210.872H117.649V214.4C118.807 213.131 120.244 212.16 121.961 211.488C123.679 210.779 125.564 210.424 127.617 210.424ZM167.456 239.544C166.598 240.179 165.534 240.664 164.264 241C163.032 241.299 161.726 241.448 160.344 241.448C156.76 241.448 153.979 240.533 152 238.704C150.059 236.875 149.088 234.187 149.088 230.64V218.264H144.44V211.544H149.088V204.208H157.824V211.544H165.328V218.264H157.824V230.528C157.824 231.797 158.142 232.787 158.776 233.496C159.448 234.168 160.382 234.504 161.576 234.504C162.958 234.504 164.134 234.131 165.104 233.384L167.456 239.544Z" fill="white"/>
<rect opacity="0.5" x="580.356" y="210.552" width="155.215" height="16.8712" fill="#797FA0"/>
<path d="M596.616 201.8C600.088 201.8 603.093 202.379 605.632 203.536C608.208 204.693 610.187 206.336 611.568 208.464C612.949 210.592 613.64 213.112 613.64 216.024C613.64 218.899 612.949 221.419 611.568 223.584C610.187 225.712 608.208 227.355 605.632 228.512C603.093 229.632 600.088 230.192 596.616 230.192H588.72V241H579.648V201.8H596.616ZM596.112 222.8C598.837 222.8 600.909 222.221 602.328 221.064C603.747 219.869 604.456 218.189 604.456 216.024C604.456 213.821 603.747 212.141 602.328 210.984C600.909 209.789 598.837 209.192 596.112 209.192H588.72V222.8H596.112ZM620.048 199.448H628.784V241H620.048V199.448ZM649.043 210.424C653.71 210.424 657.294 211.544 659.795 213.784C662.297 215.987 663.547 219.328 663.547 223.808V241H655.371V237.248C653.729 240.048 650.667 241.448 646.187 241.448C643.873 241.448 641.857 241.056 640.139 240.272C638.459 239.488 637.171 238.405 636.275 237.024C635.379 235.643 634.931 234.075 634.931 232.32C634.931 229.52 635.977 227.317 638.067 225.712C640.195 224.107 643.462 223.304 647.867 223.304H654.811C654.811 221.4 654.233 219.944 653.075 218.936C651.918 217.891 650.182 217.368 647.867 217.368C646.262 217.368 644.675 217.629 643.107 218.152C641.577 218.637 640.27 219.309 639.187 220.168L636.051 214.064C637.694 212.907 639.654 212.011 641.931 211.376C644.246 210.741 646.617 210.424 649.043 210.424ZM648.371 235.568C649.865 235.568 651.19 235.232 652.347 234.56C653.505 233.851 654.326 232.824 654.811 231.48V228.4H648.819C645.235 228.4 643.443 229.576 643.443 231.928C643.443 233.048 643.873 233.944 644.731 234.616C645.627 235.251 646.841 235.568 648.371 235.568ZM686.342 241.448C683.131 241.448 680.238 240.795 677.662 239.488C675.123 238.144 673.126 236.296 671.67 233.944C670.251 231.592 669.542 228.923 669.542 225.936C669.542 222.949 670.251 220.28 671.67 217.928C673.126 215.576 675.123 213.747 677.662 212.44C680.238 211.096 683.131 210.424 686.342 210.424C689.515 210.424 692.278 211.096 694.63 212.44C697.019 213.747 698.755 215.632 699.838 218.096L693.062 221.736C691.494 218.973 689.235 217.592 686.286 217.592C684.009 217.592 682.123 218.339 680.63 219.832C679.137 221.325 678.39 223.36 678.39 225.936C678.39 228.512 679.137 230.547 680.63 232.04C682.123 233.533 684.009 234.28 686.286 234.28C689.273 234.28 691.531 232.899 693.062 230.136L699.838 233.832C698.755 236.221 697.019 238.088 694.63 239.432C692.278 240.776 689.515 241.448 686.342 241.448ZM733.997 226.048C733.997 226.16 733.941 226.944 733.829 228.4H711.037C711.448 230.267 712.418 231.741 713.949 232.824C715.48 233.907 717.384 234.448 719.661 234.448C721.229 234.448 722.61 234.224 723.805 233.776C725.037 233.291 726.176 232.544 727.221 231.536L731.869 236.576C729.032 239.824 724.888 241.448 719.437 241.448C716.04 241.448 713.034 240.795 710.421 239.488C707.808 238.144 705.792 236.296 704.373 233.944C702.954 231.592 702.245 228.923 702.245 225.936C702.245 222.987 702.936 220.336 704.317 217.984C705.736 215.595 707.658 213.747 710.085 212.44C712.549 211.096 715.293 210.424 718.317 210.424C721.266 210.424 723.936 211.059 726.325 212.328C728.714 213.597 730.581 215.427 731.925 217.816C733.306 220.168 733.997 222.912 733.997 226.048ZM718.373 217.032C716.394 217.032 714.733 217.592 713.389 218.712C712.045 219.832 711.224 221.363 710.925 223.304H725.765C725.466 221.4 724.645 219.888 723.301 218.768C721.957 217.611 720.314 217.032 718.373 217.032Z" fill="white"/>
</svg>
