<svg width="343" height="401" viewBox="0 0 343 401" fill="none" xmlns="http://www.w3.org/2000/svg">
<rect width="343" height="29.4957" fill="#15162D"/>
<rect y="371.517" width="343" height="29.4831" fill="#15162D"/>
<path fill-rule="evenodd" clip-rule="evenodd" d="M343 29H0V372H343V29ZM239.9 200.51L342.474 97.9156V29.5261H274.084L171.51 132.121L68.9156 29.5261H0.526074V97.9156L103.121 200.51L0.526074 303.084V371.474H68.9156L171.51 268.9L274.084 371.474H342.474V303.084L239.9 200.51Z" fill="#15162D"/>
<path d="M168.467 202.506V213.187H154.14V204.642H157.72V209.628H164.884V203.983L163.402 202.506H154.14V198.947H164.884L168.465 202.506H168.467Z" fill="#D5E6F7"/>
<path d="M184.214 202.5V213.186H180.62V210.691H173.456V213.186H169.886V204.627H173.456V207.124H180.62V203.966L179.138 202.489H169.873V198.922H180.62V198.924V198.922L184.214 202.5Z" fill="#D5E6F7"/>
<path d="M199.913 209.671V209.674L196.327 213.244H185.609V209.671H194.858L196.338 208.197V207.528H185.609V198.948H189.2V203.952H196.338V198.99H199.913V209.671Z" fill="#D5E6F7"/>
<rect opacity="0.5" x="110" y="31" width="123" height="17" fill="#797FA0"/>
<path d="M135 33.8V39H113.32V11H134.48V16.2H119.76V22.28H132.76V27.32H119.76V33.8H135ZM160.881 17.48L151.801 39H145.361L136.321 17.48H142.761L148.721 32.12L154.881 17.48H160.881ZM183.921 28.32C183.921 28.4 183.881 28.96 183.801 30H167.521C167.814 31.3333 168.508 32.3867 169.601 33.16C170.694 33.9333 172.054 34.32 173.681 34.32C174.801 34.32 175.788 34.16 176.641 33.84C177.521 33.4933 178.334 32.96 179.081 32.24L182.401 35.84C180.374 38.16 177.414 39.32 173.521 39.32C171.094 39.32 168.948 38.8533 167.081 37.92C165.214 36.96 163.774 35.64 162.761 33.96C161.748 32.28 161.241 30.3733 161.241 28.24C161.241 26.1333 161.734 24.24 162.721 22.56C163.734 20.8533 165.108 19.5333 166.841 18.6C168.601 17.64 170.561 17.16 172.721 17.16C174.828 17.16 176.734 17.6133 178.441 18.52C180.148 19.4267 181.481 20.7333 182.441 22.44C183.428 24.12 183.921 26.08 183.921 28.32ZM172.761 21.88C171.348 21.88 170.161 22.28 169.201 23.08C168.241 23.88 167.654 24.9733 167.441 26.36H178.041C177.828 25 177.241 23.92 176.281 23.12C175.321 22.2933 174.148 21.88 172.761 21.88ZM201.155 17.16C203.822 17.16 205.969 17.96 207.595 19.56C209.249 21.16 210.075 23.5333 210.075 26.68V39H203.835V27.64C203.835 25.9333 203.462 24.6667 202.715 23.84C201.969 22.9867 200.889 22.56 199.475 22.56C197.902 22.56 196.649 23.0533 195.715 24.04C194.782 25 194.315 26.44 194.315 28.36V39H188.075V17.48H194.035V20C194.862 19.0933 195.889 18.4 197.115 17.92C198.342 17.4133 199.689 17.16 201.155 17.16ZM229.612 37.96C228.998 38.4133 228.238 38.76 227.332 39C226.452 39.2133 225.518 39.32 224.532 39.32C221.972 39.32 219.985 38.6667 218.572 37.36C217.185 36.0533 216.492 34.1333 216.492 31.6V22.76H213.172V17.96H216.492V12.72H222.732V17.96H228.092V22.76H222.732V31.52C222.732 32.4267 222.958 33.1333 223.412 33.64C223.892 34.12 224.558 34.36 225.412 34.36C226.398 34.36 227.238 34.0933 227.932 33.56L229.612 37.96Z" fill="white"/>
<rect opacity="0.5" x="113" y="378" width="117" height="16" fill="#797FA0"/>
<path d="M128.44 363C130.92 363 133.067 363.413 134.88 364.24C136.72 365.067 138.133 366.24 139.12 367.76C140.107 369.28 140.6 371.08 140.6 373.16C140.6 375.213 140.107 377.013 139.12 378.56C138.133 380.08 136.72 381.253 134.88 382.08C133.067 382.88 130.92 383.28 128.44 383.28H122.8V391H116.32V363H128.44ZM128.08 378C130.027 378 131.507 377.587 132.52 376.76C133.533 375.907 134.04 374.707 134.04 373.16C134.04 371.587 133.533 370.387 132.52 369.56C131.507 368.707 130.027 368.28 128.08 368.28H122.8V378H128.08ZM145.177 361.32H151.417V391H145.177V361.32ZM165.888 369.16C169.221 369.16 171.781 369.96 173.568 371.56C175.355 373.133 176.248 375.52 176.248 378.72V391H170.408V388.32C169.235 390.32 167.048 391.32 163.848 391.32C162.195 391.32 160.755 391.04 159.528 390.48C158.328 389.92 157.408 389.147 156.768 388.16C156.128 387.173 155.808 386.053 155.808 384.8C155.808 382.8 156.555 381.227 158.048 380.08C159.568 378.933 161.901 378.36 165.048 378.36H170.008C170.008 377 169.595 375.96 168.768 375.24C167.941 374.493 166.701 374.12 165.048 374.12C163.901 374.12 162.768 374.307 161.648 374.68C160.555 375.027 159.621 375.507 158.848 376.12L156.608 371.76C157.781 370.933 159.181 370.293 160.808 369.84C162.461 369.387 164.155 369.16 165.888 369.16ZM165.408 387.12C166.475 387.12 167.421 386.88 168.248 386.4C169.075 385.893 169.661 385.16 170.008 384.2V382H165.728C163.168 382 161.888 382.84 161.888 384.52C161.888 385.32 162.195 385.96 162.808 386.44C163.448 386.893 164.315 387.12 165.408 387.12ZM192.53 391.32C190.237 391.32 188.17 390.853 186.33 389.92C184.517 388.96 183.09 387.64 182.05 385.96C181.037 384.28 180.53 382.373 180.53 380.24C180.53 378.107 181.037 376.2 182.05 374.52C183.09 372.84 184.517 371.533 186.33 370.6C188.17 369.64 190.237 369.16 192.53 369.16C194.797 369.16 196.77 369.64 198.45 370.6C200.157 371.533 201.397 372.88 202.17 374.64L197.33 377.24C196.21 375.267 194.597 374.28 192.49 374.28C190.863 374.28 189.517 374.813 188.45 375.88C187.383 376.947 186.85 378.4 186.85 380.24C186.85 382.08 187.383 383.533 188.45 384.6C189.517 385.667 190.863 386.2 192.49 386.2C194.623 386.2 196.237 385.213 197.33 383.24L202.17 385.88C201.397 387.587 200.157 388.92 198.45 389.88C196.77 390.84 194.797 391.32 192.53 391.32ZM226.569 380.32C226.569 380.4 226.529 380.96 226.449 382H210.169C210.463 383.333 211.156 384.387 212.249 385.16C213.343 385.933 214.703 386.32 216.329 386.32C217.449 386.32 218.436 386.16 219.289 385.84C220.169 385.493 220.983 384.96 221.729 384.24L225.049 387.84C223.023 390.16 220.063 391.32 216.169 391.32C213.743 391.32 211.596 390.853 209.729 389.92C207.863 388.96 206.423 387.64 205.409 385.96C204.396 384.28 203.889 382.373 203.889 380.24C203.889 378.133 204.383 376.24 205.369 374.56C206.383 372.853 207.756 371.533 209.489 370.6C211.249 369.64 213.209 369.16 215.369 369.16C217.476 369.16 219.383 369.613 221.089 370.52C222.796 371.427 224.129 372.733 225.089 374.44C226.076 376.12 226.569 378.08 226.569 380.32ZM215.409 373.88C213.996 373.88 212.809 374.28 211.849 375.08C210.889 375.88 210.303 376.973 210.089 378.36H220.689C220.476 377 219.889 375.92 218.929 375.12C217.969 374.293 216.796 373.88 215.409 373.88Z" fill="white"/>
</svg>
