<svg width="60" height="60" viewBox="0 0 60 60" fill="none" xmlns="http://www.w3.org/2000/svg">
<path d="M58.7769 20.5785V27.438H2V20.5785H38.4463C39.8788 19.697 40.595 18.6501 40.595 17.438C40.595 15.4545 39.6859 13.8567 37.8678 12.6446C36.0496 11.4325 33.2948 10.8264 29.6033 10.8264C24.0386 10.8264 18.5014 11.9559 12.9917 14.2149L9.93388 4.04959C16.3251 1.34986 22.7438 0 29.1901 0C34.1488 0 38.4738 0.743802 42.1653 2.23141C45.9118 3.71901 48.7769 5.84022 50.7603 8.59504C52.7989 11.2948 53.8182 14.4628 53.8182 18.0992C53.8182 18.9807 53.7355 19.8072 53.5702 20.5785H58.7769ZM2 31.9835H58.7769V38.843H23.7355C21.4215 39.8898 20.2645 41.2672 20.2645 42.9752C20.2645 44.8485 21.1736 46.3636 22.9917 47.5207C24.8099 48.6226 27.6198 49.1736 31.4215 49.1736C34.8926 49.1736 38.3912 48.7328 41.9174 47.8512C45.4435 46.9697 48.5014 45.7851 51.0909 44.2975L54.4793 54.3802C50.9532 56.1983 47.2342 57.6033 43.3223 58.595C39.4105 59.5317 35.5537 60 31.7521 60C26.6832 60 22.2755 59.2837 18.5289 57.8512C14.8375 56.3636 11.9725 54.27 9.93388 51.5702C7.95041 48.8154 6.95868 45.6198 6.95868 41.9835C6.95868 40.8815 7.09642 39.8347 7.3719 38.843H2V31.9835Z" fill="#15162D"/>
</svg>
