<svg width="650" height="650" viewBox="0 0 650 650" fill="none" xmlns="http://www.w3.org/2000/svg">
<path fill-rule="evenodd" clip-rule="evenodd" d="M495.304 0L650 154.715L479.599 325.138L649.725 495.285L495.028 650L324.902 479.853L154.972 649.805L0.275291 495.089L170.206 325.138L0 154.911L154.696 0.195439L324.902 170.422L495.304 0ZM0 154.911V0H495.304H650V154.715V650H495.028H0V154.911Z" fill="#15162D"/>
<path d="M288 350H301.629C311.443 350 318.171 344.086 318.171 335C318.171 325.914 311.443 320 301.629 320H288V350ZM294.943 344.3V325.7H301.286C307.243 325.7 311.143 329.257 311.143 335C311.143 340.743 307.243 344.3 301.286 344.3H294.943Z" fill="#D5E6F7"/>
<path d="M346.689 350H353.975L340.56 320H333.703L320.332 350H327.446L330.103 343.571H344.032L346.689 350ZM332.332 338.3L337.089 326.814L341.846 338.3H332.332Z" fill="#D5E6F7"/>
<path d="M382.588 320H375.774L367.76 333.329L359.746 320H352.374L363.988 339.286V350H370.931V339.371L382.588 320Z" fill="#D5E6F7"/>
</svg>
