<svg width="652" height="652" viewBox="0 0 652 652" fill="none" xmlns="http://www.w3.org/2000/svg">
<path fill-rule="evenodd" clip-rule="evenodd" d="M652 0H0V652H652V0ZM456.019 326.019L651 131V1H521L326.019 196.019L131 1H1V131L196.019 326.019L1 521V651H131L326.019 456.019L521 651H651V521L456.019 326.019Z" fill="#15162D"/>
<path d="M289 351H302.629C312.443 351 319.171 345.086 319.171 336C319.171 326.914 312.443 321 302.629 321H289V351ZM295.943 345.3V326.7H302.286C308.243 326.7 312.143 330.257 312.143 336C312.143 341.743 308.243 345.3 302.286 345.3H295.943Z" fill="#D5E6F7"/>
<path d="M347.689 351H354.975L341.56 321H334.703L321.332 351H328.446L331.103 344.571H345.032L347.689 351ZM333.332 339.3L338.089 327.814L342.846 339.3H333.332Z" fill="#D5E6F7"/>
<path d="M383.588 321H376.774L368.76 334.329L360.746 321H353.374L364.988 340.286V351H371.931V340.371L383.588 321Z" fill="#D5E6F7"/>
</svg>
