<svg width="59" height="59" viewBox="0 0 59 59" fill="none" xmlns="http://www.w3.org/2000/svg">
<path d="M58.5027 58.332H46.9445L29.609 41.0321L12.2701 58.332H0.71196L29.609 29.5L58.5027 58.332Z" fill="url(#paint0_linear)"/>
<path d="M58.5027 12.2001L41.1672 29.5L58.5027 46.7999V58.332L29.609 29.5L58.5027 0.667961V12.2001Z" fill="url(#paint1_linear)"/>
<path d="M29.609 29.5L0.71196 58.332V46.7999L18.0509 29.5L0.71196 12.2001V0.667961L29.609 29.5Z" fill="url(#paint2_linear)"/>
<path d="M58.5027 0.667961L29.609 29.5L0.71196 0.667961H12.2701L29.609 17.9679L46.9445 0.667961H58.5027Z" fill="url(#paint3_linear)"/>
<defs>
<linearGradient id="paint0_linear" x1="43.9" y1="54.3555" x2="16.7446" y2="44.4461" gradientUnits="userSpaceOnUse">
<stop stop-color="#941B80"/>
<stop offset="0.0652473" stop-color="#8C1E82"/>
<stop offset="0.168" stop-color="#752686"/>
<stop offset="0.2954" stop-color="#50338E"/>
<stop offset="0.4412" stop-color="#1E4598"/>
<stop offset="0.5181" stop-color="#004F9E"/>
<stop offset="0.6953" stop-color="#034D9C"/>
<stop offset="0.8478" stop-color="#0E4697"/>
<stop offset="0.991" stop-color="#203B8F"/>
<stop offset="1" stop-color="#213A8E"/>
</linearGradient>
<linearGradient id="paint1_linear" x1="42.408" y1="11.6767" x2="56.9717" y2="41.9329" gradientUnits="userSpaceOnUse">
<stop stop-color="#E95178"/>
<stop offset="0.3359" stop-color="#E5007E"/>
<stop offset="0.6691" stop-color="#7E4996"/>
<stop offset="0.821" stop-color="#564292"/>
<stop offset="1" stop-color="#213A8D"/>
</linearGradient>
<linearGradient id="paint2_linear" x1="10.4774" y1="42.6438" x2="16.7754" y2="5.41337" gradientUnits="userSpaceOnUse">
<stop stop-color="#EA5B37"/>
<stop offset="0.3359" stop-color="#E5007E"/>
<stop offset="0.6691" stop-color="#941B80"/>
<stop offset="0.7937" stop-color="#6C2685"/>
<stop offset="1" stop-color="#213A8E"/>
</linearGradient>
<linearGradient id="paint3_linear" x1="0.712702" y1="15.0848" x2="58.5036" y2="15.0848" gradientUnits="userSpaceOnUse">
<stop stop-color="#E5007E"/>
<stop offset="0.5181" stop-color="#E95178"/>
<stop offset="0.8257" stop-color="#EA5750"/>
<stop offset="1" stop-color="#EA5B37"/>
</linearGradient>
</defs>
</svg>
