<svg width="148" height="59" viewBox="0 0 148 59" fill="none" xmlns="http://www.w3.org/2000/svg">
<path d="M58.5027 58.332H46.9445L29.609 41.0321L12.2701 58.332H0.71196L29.609 29.5L58.5027 58.332Z" fill="url(#paint0_linear)"/>
<path d="M58.5027 12.2001L41.1672 29.5L58.5027 46.7999V58.332L29.609 29.5L58.5027 0.667961V12.2001Z" fill="url(#paint1_linear)"/>
<path d="M29.609 29.5L0.71196 58.332V46.7999L18.0509 29.5L0.71196 12.2001V0.667961L29.609 29.5Z" fill="url(#paint2_linear)"/>
<path d="M58.5027 0.667961L29.609 29.5L0.71196 0.667961H12.2701L29.609 17.9679L46.9445 0.667961H58.5027Z" fill="url(#paint3_linear)"/>
<path d="M95.0971 23.0263V40.9897H71V26.6181H77.0221V35.0034H89.0706V25.5095L86.5774 23.0263H71V17.0399H89.0706L95.0927 23.0263H95.0971Z" fill="white"/>
<path d="M121.581 23.0174V40.9897H115.537V36.7948H103.488V40.9897H97.4837V26.5959H103.488V30.7952H115.537V25.4829L113.043 22.9996H97.4615V17H115.537V17.0044V17L121.581 23.0174Z" fill="white"/>
<path d="M147.985 35.0787V35.0832L141.954 41.0872H123.927V35.0787H139.483L141.971 32.5999V31.4736H123.927V17.0443H129.967V25.4607H141.971V17.1153H147.985V35.0787Z" fill="white"/>
<defs>
<linearGradient id="paint0_linear" x1="43.9" y1="54.3555" x2="16.7446" y2="44.4461" gradientUnits="userSpaceOnUse">
<stop stop-color="#941B80"/>
<stop offset="0.0652473" stop-color="#8C1E82"/>
<stop offset="0.168" stop-color="#752686"/>
<stop offset="0.2954" stop-color="#50338E"/>
<stop offset="0.4412" stop-color="#1E4598"/>
<stop offset="0.5181" stop-color="#004F9E"/>
<stop offset="0.6953" stop-color="#034D9C"/>
<stop offset="0.8478" stop-color="#0E4697"/>
<stop offset="0.991" stop-color="#203B8F"/>
<stop offset="1" stop-color="#213A8E"/>
</linearGradient>
<linearGradient id="paint1_linear" x1="42.408" y1="11.6767" x2="56.9717" y2="41.9329" gradientUnits="userSpaceOnUse">
<stop stop-color="#E95178"/>
<stop offset="0.3359" stop-color="#E5007E"/>
<stop offset="0.6691" stop-color="#7E4996"/>
<stop offset="0.821" stop-color="#564292"/>
<stop offset="1" stop-color="#213A8D"/>
</linearGradient>
<linearGradient id="paint2_linear" x1="10.4774" y1="42.6438" x2="16.7754" y2="5.41337" gradientUnits="userSpaceOnUse">
<stop stop-color="#EA5B37"/>
<stop offset="0.3359" stop-color="#E5007E"/>
<stop offset="0.6691" stop-color="#941B80"/>
<stop offset="0.7937" stop-color="#6C2685"/>
<stop offset="1" stop-color="#213A8E"/>
</linearGradient>
<linearGradient id="paint3_linear" x1="0.712702" y1="15.0848" x2="58.5036" y2="15.0848" gradientUnits="userSpaceOnUse">
<stop stop-color="#E5007E"/>
<stop offset="0.5181" stop-color="#E95178"/>
<stop offset="0.8257" stop-color="#EA5750"/>
<stop offset="1" stop-color="#EA5B37"/>
</linearGradient>
</defs>
</svg>
