<svg width="60" height="60" viewBox="0 0 60 60" fill="none" xmlns="http://www.w3.org/2000/svg">
<path d="M40.1111 11.9997C37.5658 12.0009 35.2204 13.3743 33.9805 15.5896C31.4388 14.7999 28.7161 14.7999 26.1744 15.5896C24.6843 12.91 21.6188 11.5074 18.6085 12.128C15.5982 12.7486 13.3426 15.2481 13.0414 18.297C12.7403 21.3459 14.4635 24.2358 17.2946 25.4295C16.2423 30.5946 18.4232 35.8818 22.8163 38.8158C27.2095 41.7497 32.9454 41.7497 37.3385 38.8158C41.7317 35.8818 43.9126 30.5946 42.8603 25.4295C45.9171 24.1187 47.6313 20.8498 46.9661 17.6002C46.3008 14.3506 43.4388 12.0123 40.1111 11.9997ZM19.8432 19.9996C19.289 19.9444 18.8847 19.4519 18.9401 18.8996C18.9955 18.3473 19.4897 17.9444 20.0438 17.9996C20.4768 18.0056 20.8571 18.2879 20.987 18.6996C20.5788 19.1086 20.1967 19.5428 19.8432 19.9996ZM40.3117 19.9996C39.9568 19.5565 39.5748 19.1357 39.1679 18.7396C39.2833 18.312 39.667 18.011 40.1111 17.9996C40.6652 17.9444 41.1593 18.3473 41.2148 18.8996C41.2702 19.4519 40.8659 19.9444 40.3117 19.9996ZM42.3185 23.5195C42.0847 22.8955 41.8029 22.2904 41.4756 21.7096C42.7972 21.0396 43.4325 19.5104 42.9728 18.1055C42.5131 16.7006 41.0954 15.8386 39.6316 16.0739C38.1679 16.3093 37.0941 17.5719 37.101 19.0496C37.0914 19.126 37.0914 19.2032 37.101 19.2796C37.1224 19.4304 37.1971 19.5687 37.3117 19.6696C37.3384 19.7005 37.3619 19.734 37.3819 19.7696C38.9678 21.1657 40.1085 22.9943 40.6629 25.0295C41.9091 29.5082 40.1963 34.2842 36.384 36.961C32.5718 39.6379 27.4828 39.6379 23.6705 36.961C19.8583 34.2842 18.1455 29.5082 19.3916 25.0295C19.9495 22.9986 21.0897 21.1741 22.6726 19.7796C23.6258 18.9196 22.5322 15.9796 19.9937 15.9796C18.6141 15.9965 17.4227 16.9459 17.1026 18.2834C16.7825 19.6208 17.4157 21.0039 18.6391 21.6396C18.3137 22.2248 18.032 22.8331 17.7963 23.4595C15.7287 22.4153 14.6481 20.0954 15.1822 17.8475C15.7162 15.5996 17.726 14.009 20.0438 13.9997C22.1159 14.0016 23.9735 15.273 24.7195 17.1996C24.8158 17.4482 25.0077 17.6483 25.2526 17.7553C25.4975 17.8623 25.7751 17.8675 26.0239 17.7696C28.6293 16.7496 31.5255 16.7496 34.131 17.7696C34.3798 17.8675 34.6574 17.8623 34.9023 17.7553C35.1472 17.6483 35.3391 17.4482 35.4354 17.1996C36.3095 14.9595 38.6592 13.6562 41.0301 14.0965C43.4009 14.5368 45.122 16.5961 45.1279 18.9996C45.1222 20.9066 44.0286 22.6443 42.3084 23.4795L42.3185 23.5195Z" fill="#7785FF"/>
<path d="M26.0639 23.9997C26.618 23.9997 27.0673 23.552 27.0673 22.9997V21.9997C27.0673 21.4475 26.618 20.9998 26.0639 20.9998C25.5098 20.9998 25.0605 21.4475 25.0605 21.9997V22.9997C25.0605 23.552 25.5098 23.9997 26.0639 23.9997Z" fill="#7785FF"/>
<path d="M34.0908 23.9997C34.6449 23.9997 35.0941 23.552 35.0941 22.9997V21.9997C35.0941 21.4475 34.6449 20.9998 34.0908 20.9998C33.5366 20.9998 33.0874 21.4475 33.0874 21.9997V22.9997C33.0874 23.552 33.5366 23.9997 34.0908 23.9997Z" fill="#7785FF"/>
<path d="M32.7459 25.6298C32.2272 24.6386 31.1986 24.0171 30.0769 24.0171C28.9553 24.0171 27.9266 24.6386 27.408 25.6298C24.901 26.8656 23.5781 29.6594 24.2148 32.3737C24.8515 35.088 27.28 37.0078 30.0769 37.0078C32.8738 37.0078 35.3023 35.088 35.939 32.3737C36.5757 29.6594 35.2529 26.8656 32.7459 25.6298ZM30.0769 25.9998C30.6311 25.9998 31.0803 26.4475 31.0803 26.9998C31.0803 27.5521 30.6311 27.9998 30.0769 27.9998C29.5228 27.9998 29.0736 27.5521 29.0736 26.9998C29.0736 26.4475 29.5228 25.9998 30.0769 25.9998ZM30.0769 34.9997C28.4439 34.9972 26.9753 34.0088 26.3628 32.5002C25.7502 30.9915 26.1159 29.2634 27.2876 28.1298C27.6139 28.9212 28.2637 29.536 29.0736 29.8198V31.9997C29.0736 32.552 29.5228 32.9997 30.0769 32.9997C30.6311 32.9997 31.0803 32.552 31.0803 31.9997V29.8198C31.8902 29.536 32.54 28.9212 32.8663 28.1298C34.0379 29.2634 34.4036 30.9915 33.7911 32.5002C33.1785 34.0088 31.7099 34.9972 30.0769 34.9997Z" fill="#7785FF"/>
<path d="M30.0773 0C16.9233 0 7 9.63986 7 22.4297C7 34.9595 15.4985 45.4294 24.3281 48.8593C21.7732 50.0701 19.6513 52.0312 18.2477 54.4792C17.0515 56.6026 14.8207 57.9404 12.378 57.9992H9.00672C8.45258 57.9992 8.00336 58.4469 8.00336 58.9992C8.00336 59.5514 8.45258 59.9991 9.00672 59.9991H12.378C15.5221 59.9428 18.4041 58.2407 19.9634 55.5192C21.3262 53.0664 23.5426 51.1954 26.1943 50.2593L23.3849 55.6492C22.9086 56.5905 22.963 57.712 23.5283 58.6031C24.0935 59.4942 25.0866 60.0242 26.1441 59.9991H34.0105C35.068 60.0242 36.0611 59.4942 36.6264 58.6031C37.1916 57.712 37.2461 56.5905 36.7698 55.6492L33.6192 49.6493C44.2247 47.3793 53.1547 35.4295 53.1547 22.4297C53.1547 9.63986 43.2314 0 30.0773 0ZM34.9838 56.5692C35.1417 56.8951 35.1107 57.2806 34.9026 57.5772C34.6944 57.8738 34.3418 58.0352 33.9804 57.9992H26.1441C25.7828 58.0352 25.4301 57.8738 25.222 57.5772C25.0139 57.2806 24.9828 56.8951 25.1408 56.5692L28.6124 49.9193C29.5697 50.0198 30.5348 50.0198 31.4921 49.9193L34.9838 56.5692ZM30.0773 47.9993C20.5354 47.9993 9.00672 36.5895 9.00672 22.4297C9.00672 10.7798 18.037 1.99997 30.0773 1.99997C42.1177 1.99997 51.1479 10.7798 51.1479 22.4297C51.1479 37.0595 40.0206 47.9993 30.0773 47.9993Z" fill="#7785FF"/>
<path d="M24.368 6.8702C28.1939 5.71122 32.2815 5.72864 36.0973 6.9202C36.56 6.88542 36.9384 6.53898 37.0124 6.08244C37.0863 5.6259 36.8365 5.17837 36.4083 5.00023C32.2868 3.71021 27.8675 3.71021 23.7459 5.00023C23.2396 5.18605 22.9714 5.73763 23.1388 6.24882C23.3062 6.76001 23.8492 7.04777 24.368 6.9002V6.8702Z" fill="#7785FF"/>
<path d="M19.0401 9.4406C19.5017 9.4406 19.5719 9.2306 20.5752 8.61061C20.9068 8.43482 21.1121 8.08921 21.1073 7.71495C21.1025 7.34068 20.8883 7.00043 20.5524 6.83318C20.2164 6.66592 19.8148 6.69967 19.5117 6.92064C19.1505 7.14063 18.7993 7.38063 18.4481 7.63063C18.0952 7.88525 17.9475 8.33772 18.0826 8.75053C18.2176 9.16335 18.6045 9.44215 19.0401 9.4406Z" fill="#7785FF"/>
</svg>
