<svg width="60" height="60" viewBox="0 0 60 60" fill="none" xmlns="http://www.w3.org/2000/svg">
<g clip-path="url(#clip0)">
<path d="M28.2153 16.0225C28.2034 15.5001 27.8475 15.0486 27.3423 14.9154L16.1683 11.9686C16.1675 11.9682 16.1666 11.9681 16.1657 11.9679L11.9574 10.858C11.459 10.7262 10.9319 10.9367 10.661 11.3761C8.97545 14.11 7.64994 17.1517 6.82775 20.1723C5.45525 25.2135 5.68822 29.5383 7.50146 32.6791C8.55053 34.4964 10.09 35.83 11.9922 36.5897L7.68381 52.416L1.47098 50.7775C0.845668 50.6125 0.204065 50.9859 0.0390645 51.6118C-0.126053 52.2375 0.247424 52.8787 0.873324 53.0438C0.87391 53.0439 8.2006 54.9763 8.20119 54.9766C8.20178 54.9767 15.5466 56.9138 15.5473 56.9139C15.6474 56.9403 15.748 56.9529 15.847 56.9529C16.3662 56.9529 16.8407 56.6052 16.9793 56.0797C17.1444 55.4539 16.7709 54.8127 16.145 54.6476L9.95022 53.0138L14.2578 37.1908C14.68 37.2492 15.1026 37.2793 15.5223 37.2793C20.7478 37.2793 25.0635 32.8867 27.0665 25.5289C27.889 22.5077 28.2861 19.2204 28.2153 16.0225ZM24.8048 24.9133C23.0963 31.1889 19.6263 34.9356 15.522 34.9356C14.9243 34.9356 14.3156 34.855 13.7126 34.6959C11.9065 34.2196 10.4606 33.117 9.53139 31.5073C8.429 29.5977 8.05787 27.0785 8.42244 24.1113C9.98713 24.3658 11.4646 24.4645 12.8649 24.4645C15.1693 24.4645 17.2688 24.2046 19.2207 23.963C21.4225 23.6904 23.3767 23.4496 25.1134 23.6668C25.0188 24.0868 24.9165 24.503 24.8048 24.9133ZM25.5413 21.3607C23.464 21.0779 21.252 21.3499 18.933 21.637C15.967 22.0042 12.6412 22.4156 8.83412 21.8054C8.91135 21.4705 8.99572 21.1317 9.08936 20.788C9.77983 18.2513 10.8537 15.6964 12.2123 13.3491L14.0743 13.8403C13.7368 14.4907 13.4255 15.1589 13.1831 15.703C12.9196 16.2941 13.1853 16.9869 13.7764 17.2504C13.9314 17.3196 14.0934 17.3523 14.2528 17.3523C14.7012 17.3523 15.1294 17.0933 15.3239 16.6572C15.703 15.8067 16.0734 15.0521 16.4037 14.4546L25.8791 16.9535C25.8694 18.4238 25.7549 19.9059 25.5413 21.3607Z" fill="#7785FF"/>
<path d="M51.7988 54.9766C51.7984 54.9768 51.7978 54.9768 51.7973 54.9769L44.5112 56.8986C45.1971 56.7175 51.7994 54.9764 51.7988 54.9766Z" fill="#7785FF"/>
<path d="M44.5112 56.8984C44.4736 56.9084 44.4527 56.9139 44.4527 56.9139L44.5112 56.8984Z" fill="#7785FF"/>
<path d="M59.9609 51.6117C59.796 50.9859 59.1543 50.6128 58.5289 50.7774L52.316 52.4159L48.0076 36.5894C49.9098 35.8297 51.4493 34.4961 52.4982 32.6788C54.3115 29.538 54.5444 25.2131 53.1721 20.1721C52.3498 17.1515 51.0242 14.1098 49.3387 11.3759C49.0677 10.9365 48.541 10.7259 48.0423 10.8578L32.6576 14.9153C32.1524 15.0485 31.7964 15.5 31.7848 16.0225C31.7211 18.9 32.0375 21.849 32.7005 24.6122C32.7079 24.651 32.7171 24.6894 32.7282 24.7271C32.7939 24.996 32.8616 25.2639 32.9337 25.529C34.9365 32.8861 39.2519 37.2789 44.4777 37.2794C44.4779 37.2794 44.4781 37.2794 44.4785 37.2794C44.8979 37.2794 45.3204 37.2493 45.7424 37.1908L50.0499 53.0138L43.8552 54.6477C43.2293 54.8127 42.8558 55.4538 43.0209 56.0797C43.1595 56.6054 43.634 56.953 44.1532 56.953C44.2521 56.953 44.3527 56.9403 44.4528 56.9139L51.797 54.9768C51.7971 54.9768 51.7972 54.9768 51.7973 54.9768L59.1268 53.0438C59.7525 52.8787 60.126 52.2375 59.9609 51.6117ZM34.1211 16.9531L47.7875 13.3488C49.1462 15.6961 50.2201 18.251 50.9106 20.7878C51.1108 21.5235 51.2728 22.2389 51.3981 22.9331C50.6852 22.8625 49.9588 22.8516 49.2187 22.8811C49.093 22.0232 48.9077 21.1289 48.75 20.4353C48.6067 19.8042 47.9784 19.4087 47.3476 19.5523C46.7164 19.6957 46.321 20.3236 46.4646 20.9548C46.6424 21.7368 46.7822 22.4574 46.8774 23.0747C46.3468 23.1352 45.8104 23.2034 45.2679 23.2725C42.2256 23.6608 38.8005 24.0973 34.8242 23.3881C34.3748 21.3012 34.1349 19.1147 34.1211 16.9531ZM44.4785 34.9354C44.4783 34.9354 44.478 34.9354 44.4779 34.9354C40.585 34.935 37.2638 31.5628 35.4743 25.8612C36.7808 26.0404 38.0237 26.1134 39.2086 26.1134C41.52 26.1134 43.6165 25.8458 45.5647 25.5973C47.8624 25.3042 49.8871 25.0463 51.6872 25.3293C51.8237 27.7709 51.4166 29.8646 50.4684 31.5069C49.5391 33.1166 48.0933 34.2194 46.2872 34.6956C45.6842 34.8549 45.0758 34.9354 44.4785 34.9354Z" fill="#7785FF"/>
<path d="M29.9999 3.04712C29.3528 3.04712 28.8281 3.57177 28.8281 4.219V7.2756C28.8281 7.92283 29.3528 8.44748 29.9999 8.44748C30.6471 8.44748 31.1718 7.92283 31.1718 7.2756V4.219C31.1718 3.57177 30.6472 3.04712 29.9999 3.04712Z" fill="#7785FF"/>
<path d="M26.2061 8.79402L24.6534 6.14686C24.3258 5.58858 23.6079 5.40132 23.0495 5.72897C22.4912 6.0564 22.3042 6.7744 22.6316 7.33269L24.1844 9.97984C24.4026 10.3518 24.7941 10.559 25.1964 10.559C25.3979 10.559 25.6019 10.5071 25.7882 10.3977C26.3465 10.0703 26.5335 9.3523 26.2061 8.79402Z" fill="#7785FF"/>
<path d="M36.9505 5.72916C36.3921 5.40163 35.6742 5.58877 35.3467 6.14706L33.7939 8.79421C33.4664 9.35237 33.6535 10.0705 34.2118 10.3979C34.3981 10.5073 34.6022 10.5592 34.8036 10.5592C35.2058 10.5592 35.5973 10.352 35.8156 9.98003L37.3684 7.33288C37.6958 6.7746 37.5087 6.05659 36.9505 5.72916Z" fill="#7785FF"/>
<path d="M47.8788 17.1957C47.8782 17.1941 47.8773 17.1912 47.8765 17.1885C47.6851 16.5753 47.0347 16.2296 46.419 16.4155C45.7994 16.6026 45.4487 17.2565 45.6358 17.8761C45.6379 17.8823 45.6414 17.8938 45.6435 17.9005C45.8017 18.3995 46.2628 18.7188 46.7603 18.7188C46.8764 18.7188 46.9947 18.7013 47.1114 18.6646C47.7289 18.4709 48.0724 17.8132 47.8788 17.1957Z" fill="#7785FF"/>
<path d="M12.8904 20.3904C13.5376 20.3904 14.0623 19.8657 14.0623 19.2185C14.0623 18.5713 13.5376 18.0466 12.8904 18.0466C12.2432 18.0466 11.7185 18.5713 11.7185 19.2185C11.7185 19.8657 12.2432 20.3904 12.8904 20.3904Z" fill="#7785FF"/>
</g>
<defs>
<clipPath id="clip0">
<rect width="60" height="60" fill="white"/>
</clipPath>
</defs>
</svg>
