<svg width="234" height="57" viewBox="0 0 234 57" fill="none" xmlns="http://www.w3.org/2000/svg">
<path d="M13.52 45.6V32.64H39.52V22.56H13.52V10.4H42.96V-3.8147e-06H0.64V56H44V45.6H13.52ZM83.7613 12.96L71.4413 42.24L59.5213 12.96H46.6412L64.7213 56H77.6013L95.7613 12.96H83.7613ZM141.842 34.64C141.842 20.8 132.082 12.32 119.442 12.32C106.322 12.32 96.4819 21.6 96.4819 34.48C96.4819 47.28 106.162 56.64 121.042 56.64C128.802 56.64 134.802 54.24 138.802 49.68L132.162 42.48C129.202 45.28 125.922 46.64 121.362 46.64C114.802 46.64 110.242 43.36 109.042 38H141.602C141.682 36.96 141.842 35.6 141.842 34.64ZM119.522 21.76C125.122 21.76 129.202 25.28 130.082 30.72H108.882C109.762 25.2 113.842 21.76 119.522 21.76ZM176.311 12.32C170.471 12.32 165.431 14.32 162.071 18V12.96H150.151V56H162.631V34.72C162.631 26.8 166.951 23.12 172.951 23.12C178.471 23.12 181.671 26.32 181.671 33.28V56H194.151V31.36C194.151 18.24 186.471 12.32 176.311 12.32ZM229.863 45.12C228.503 46.16 226.663 46.72 224.823 46.72C221.463 46.72 219.463 44.72 219.463 41.04V23.52H230.183V13.92H219.463V3.44H206.983V13.92H200.343V23.52H206.983V41.2C206.983 51.44 212.903 56.64 223.063 56.64C226.903 56.64 230.663 55.76 233.223 53.92L229.863 45.12Z" fill="white"/>
</svg>
