<svg width="222" height="61" viewBox="0 0 222 61" fill="none" xmlns="http://www.w3.org/2000/svg">
<path d="M24.88 4H0.64V60H13.6V44.56H24.88C39.84 44.56 49.2 36.8 49.2 24.32C49.2 11.76 39.84 4 24.88 4ZM24.16 34H13.6V14.56H24.16C32.08 14.56 36.08 18.16 36.08 24.32C36.08 30.4 32.08 34 24.16 34ZM58.3538 60H70.8338V0.639997H58.3538V60ZM99.7763 16.32C92.8963 16.32 85.9363 18.16 81.2163 21.52L85.6963 30.24C88.8163 27.76 93.5363 26.24 98.0963 26.24C104.816 26.24 108.016 29.36 108.016 34.72H98.0963C84.9763 34.72 79.6163 40 79.6163 47.6C79.6163 55.04 85.6163 60.64 95.6963 60.64C102.016 60.64 106.496 58.56 108.816 54.64V60H120.496V35.44C120.496 22.4 112.896 16.32 99.7763 16.32ZM98.8163 52.24C94.4163 52.24 91.7763 50.16 91.7763 47.04C91.7763 44.16 93.6163 42 99.4563 42H108.016V46.4C106.576 50.32 102.976 52.24 98.8163 52.24ZM153.06 60.64C162.1 60.64 169.22 56.64 172.34 49.76L162.66 44.48C160.34 48.64 156.9 50.4 152.98 50.4C146.66 50.4 141.7 46 141.7 38.48C141.7 30.96 146.66 26.56 152.98 26.56C156.9 26.56 160.34 28.4 162.66 32.48L172.34 27.28C169.22 20.24 162.1 16.32 153.06 16.32C139.06 16.32 129.06 25.52 129.06 38.48C129.06 51.44 139.06 60.64 153.06 60.64ZM221.139 38.64C221.139 24.8 211.379 16.32 198.739 16.32C185.619 16.32 175.779 25.6 175.779 38.48C175.779 51.28 185.459 60.64 200.339 60.64C208.099 60.64 214.099 58.24 218.099 53.68L211.459 46.48C208.499 49.28 205.219 50.64 200.659 50.64C194.099 50.64 189.539 47.36 188.339 42H220.899C220.979 40.96 221.139 39.6 221.139 38.64ZM198.819 25.76C204.419 25.76 208.499 29.28 209.379 34.72H188.179C189.059 29.2 193.139 25.76 198.819 25.76Z" fill="white"/>
</svg>
