<svg width="60" height="60" viewBox="0 0 60 60" fill="none" xmlns="http://www.w3.org/2000/svg">
<g clip-path="url(#clip0)">
<path d="M59.5735 55.3968C58.0364 54.3578 56.2542 53.8872 54.4945 53.9821C52.8702 51.7521 49.8061 49.8404 45.5845 48.4314C42.9641 47.5569 40.0397 46.9256 36.9303 46.5508L43.2485 30.752C44.2018 31.4382 45.0339 32.2531 45.7139 33.1751C45.9387 33.48 46.2854 33.6525 46.6679 33.5596C48.7547 33.1825 50.9675 33.4241 53.0697 34.2591C55.1876 35.1004 56.971 36.4556 58.2269 38.1783C58.3953 38.4092 58.6621 38.5405 58.9402 38.5405C59.0107 38.5405 59.082 38.5321 59.1525 38.5146C59.501 38.4285 59.7624 38.1403 59.8132 37.786C59.8465 37.5535 60.61 32.0211 58.791 25.9939C58.6508 25.5291 58.158 25.2657 57.6926 25.4054C57.2262 25.5452 56.9618 26.0354 57.1022 26.5001C58.1639 30.0184 58.2798 33.4203 58.2147 35.4955C56.9561 34.2815 55.4328 33.3053 53.7226 32.6261C51.7785 31.8538 49.7445 31.5255 47.7645 31.6567C47.7795 31.6112 47.793 31.5669 47.8078 31.5217C48.4969 29.4236 49.0107 27.2614 49.2635 25.0665C49.4947 23.058 49.5163 21.0291 49.2626 19.0217C49.1156 17.8591 48.8656 16.7093 48.5067 15.5932C48.5041 15.5851 48.5016 15.5765 48.4989 15.5684C51.6632 17.277 54.0955 19.7946 55.7465 23.0764C55.9647 23.5103 56.4946 23.6856 56.9299 23.4681C57.3653 23.2507 57.5412 22.7225 57.323 22.2885C55.1346 17.9384 51.701 14.8094 47.1146 12.9873C40.8067 10.482 34.2413 11.3061 28.1295 15.3706C23.5672 18.4046 20.8957 22.1258 20.7841 22.2827C20.5765 22.5747 20.5675 22.9629 20.761 23.2642C20.9545 23.5656 21.3114 23.7201 21.665 23.6546C23.7658 23.2653 25.9957 23.5041 28.1135 24.3454C30.2006 25.1745 31.963 26.5027 33.216 28.1899C33.4597 28.5181 33.8153 28.7199 34.2326 28.5963C35.3525 28.3985 36.5081 28.3789 37.6631 28.5328L30.6174 46.1517C30.4397 46.1502 30.2625 46.1471 30.0841 46.1471C26.0196 46.1471 22.1351 46.5506 18.5388 47.3464C18.0633 47.4517 17.7635 47.921 17.8692 48.395C17.9747 48.8688 18.4449 49.1678 18.9212 49.0625C22.3433 48.3052 26.2034 47.9049 30.0841 47.9049C31.9235 47.9049 33.764 47.9921 35.5945 48.1733C35.6011 48.1739 35.6075 48.1738 35.6142 48.1743C39.0181 48.5106 42.2084 49.158 45.0243 50.098C48.3859 51.22 50.9813 52.6986 52.5045 54.3374C51.7359 54.5753 50.9926 54.928 50.2992 55.3966C48.0838 56.894 45.2208 56.894 43.0052 55.3966C40.1881 53.4925 36.5478 53.4926 33.7311 55.3966C31.5157 56.894 28.6527 56.894 26.4371 55.3966C23.6201 53.4925 19.9798 53.4926 17.163 55.3966C14.9476 56.894 12.0845 56.894 9.86899 55.3966C9.17571 54.928 8.43238 54.5751 7.66387 54.3374C9.18508 52.701 11.7758 51.224 15.1307 50.1025C15.5924 49.9482 15.8412 49.45 15.6864 48.9897C15.5316 48.5295 15.0319 48.2815 14.57 48.4359C10.3558 49.8444 7.29637 51.7546 5.6739 53.9818C3.91409 53.887 2.13202 54.3578 0.594986 55.3966C0.191861 55.669 0.0867431 56.2155 0.360142 56.6173C0.633424 57.0191 1.18139 57.1239 1.58499 56.8515C2.89398 55.9667 4.42913 55.605 5.92316 55.7659C5.97683 55.7774 6.03097 55.7848 6.08535 55.7861C7.06363 55.9164 8.02012 56.2709 8.87922 56.8516C11.6959 58.7554 15.3361 58.7557 18.1532 56.8516C20.3689 55.354 23.232 55.3542 25.4473 56.8516C28.2642 58.7554 31.9044 58.7557 34.7213 56.8516C36.9369 55.354 39.8 55.3542 42.0155 56.8516C43.4239 57.8036 45.0382 58.2796 46.6526 58.2796C48.2668 58.2796 49.8811 57.8036 51.2897 56.8516C52.1468 56.2723 53.1009 55.918 54.077 55.787C54.1348 55.7859 54.1923 55.7781 54.2495 55.7655C55.7424 55.6057 57.276 55.9674 58.5838 56.8515C58.9869 57.1239 59.5354 57.0192 59.8087 56.6173C60.0816 56.2159 59.9765 55.6693 59.5735 55.3968ZM35.4292 26.6915C35.4385 26.6717 35.4483 26.6521 35.4578 26.6322C36.2792 24.9184 37.2375 23.2618 38.3553 21.7222C38.6286 21.3459 38.5503 20.7779 38.158 20.4949C37.7742 20.218 37.2036 20.3099 36.9265 20.6917C36.0289 21.9278 35.2315 23.236 34.5158 24.5843C34.2573 25.0716 33.9947 25.5647 33.7729 26.0701C33.7691 26.0783 33.765 26.0864 33.7611 26.0946C32.4139 24.6416 30.7113 23.4854 28.7666 22.7132C27.056 22.0337 25.2757 21.6981 23.5242 21.7164C24.7016 20.3967 26.6356 18.4703 29.1533 16.8037C31.6496 15.151 34.2263 14.0722 36.8115 13.5972C39.3126 13.1377 41.8364 13.2455 44.3407 13.916C44.3306 13.9215 44.3198 13.9276 44.3098 13.9331C42.955 14.6742 41.6988 15.5885 40.5583 16.6267C40.1135 17.0316 39.6796 17.4479 39.2638 17.8822C38.9277 18.2336 38.9409 18.79 39.2934 19.1249C39.6459 19.4599 40.2041 19.4467 40.5403 19.0954C41.6707 17.9137 42.9471 16.833 44.3405 15.9592C44.9827 15.5564 45.653 15.1925 46.3529 14.8991C46.5368 15.3148 46.776 15.9302 47.0006 16.7361C48.064 20.554 47.7766 24.674 46.8445 28.4865C46.644 29.3064 46.4123 30.1192 46.1496 30.9214C46.1469 30.9296 46.144 30.9382 46.1413 30.9466C44.9413 29.6812 43.4677 28.6481 41.7992 27.9044C41.7764 27.8943 41.7535 27.8841 41.7307 27.8741C39.7575 27.0061 37.586 26.5729 35.4292 26.6915ZM35.107 46.3616C34.6981 46.3263 34.2865 46.2962 33.8724 46.2696C33.4148 46.2383 32.9564 46.2153 32.4981 46.1967L39.4145 28.902C39.8331 29.0215 40.2451 29.1636 40.6486 29.3263C40.7141 29.3528 41.7246 29.8141 41.7227 29.8188L35.107 46.3616Z" fill="#E5007E"/>
<path d="M10.3882 9.08374C9.64112 9.08374 9.0332 9.68962 9.0332 10.4342C9.0332 11.1787 9.64112 11.7846 10.3882 11.7846C11.1352 11.7846 11.7432 11.1787 11.7432 10.4342C11.7432 9.68966 11.1352 9.08374 10.3882 9.08374ZM10.3882 10.8843C10.1398 10.8843 9.93651 10.6826 9.93651 10.4342C9.93651 10.1857 10.1398 9.98401 10.3882 9.98401C10.6366 9.98401 10.8399 10.1857 10.8399 10.4342C10.8399 10.6826 10.6366 10.8843 10.3882 10.8843Z" fill="#E5007E"/>
<path d="M15.8081 9.98315H14.0015C13.7522 9.98315 13.5498 10.185 13.5498 10.4337C13.5498 10.6825 13.7522 10.8843 14.0015 10.8843H15.8082C16.0575 10.8843 16.2599 10.6824 16.2599 10.4337C16.2599 10.185 16.0575 9.98315 15.8081 9.98315Z" fill="#E5007E"/>
<path d="M18.5181 9.98315H17.6148C17.3654 9.98315 17.1631 10.185 17.1631 10.4337C17.1631 10.6825 17.3654 10.8843 17.6148 10.8843H18.5181C18.7674 10.8843 18.9697 10.6824 18.9697 10.4337C18.9697 10.185 18.7674 9.98315 18.5181 9.98315Z" fill="#E5007E"/>
<path d="M4.54984 9.98315H4.09816C3.84884 9.98315 3.64648 10.185 3.64648 10.4337C3.64648 10.6825 3.84884 10.8843 4.09816 10.8843H4.54984C4.80004 10.8843 5.00151 10.6824 5.00151 10.4337C5.00151 10.185 4.79915 9.98315 4.54984 9.98315Z" fill="#E5007E"/>
<path d="M6.77542 9.98315H6.32374C6.07443 9.98315 5.87207 10.185 5.87207 10.4337C5.87207 10.6825 6.07443 10.8843 6.32374 10.8843H6.77542C7.02473 10.8843 7.22709 10.6824 7.22709 10.4337C7.22709 10.185 7.02473 9.98315 6.77542 9.98315Z" fill="#E5007E"/>
<path d="M10.3882 5.48242C10.1389 5.48242 9.93652 5.68412 9.93652 5.93263V6.83299C9.93652 7.08149 10.1389 7.28319 10.3882 7.28319C10.6375 7.28319 10.8399 7.08149 10.8399 6.83299V5.93263C10.8399 5.68412 10.6375 5.48242 10.3882 5.48242Z" fill="#E5007E"/>
<path d="M10.3882 2.78101C10.1389 2.78101 9.93652 2.9827 9.93652 3.23121V4.13157C9.93652 4.38008 10.1389 4.58178 10.3882 4.58178C10.6375 4.58178 10.8399 4.38008 10.8399 4.13157V3.23121C10.8399 2.9827 10.6375 2.78101 10.3882 2.78101Z" fill="#E5007E"/>
<path d="M10.3882 0.0800781C10.1389 0.0800781 9.93652 0.281777 9.93652 0.530281V1.43064C9.93652 1.67915 10.1389 1.88085 10.3882 1.88085C10.6375 1.88085 10.8399 1.67915 10.8399 1.43064V0.530281C10.8399 0.281777 10.6375 0.0800781 10.3882 0.0800781Z" fill="#E5007E"/>
<path d="M10.3882 13.5845C10.1389 13.5845 9.93652 13.7862 9.93652 14.0346V15.8352C9.93652 16.0837 10.1389 16.2854 10.3882 16.2854C10.6375 16.2854 10.8399 16.0837 10.8399 15.8352V14.0346C10.8399 13.7862 10.6375 13.5845 10.3882 13.5845Z" fill="#E5007E"/>
<path d="M10.3882 17.186C10.1389 17.186 9.93652 17.3877 9.93652 17.6362V18.4808C9.93652 18.7293 10.1389 18.931 10.3882 18.931C10.6375 18.931 10.8399 18.7293 10.8399 18.4808V17.6362C10.8399 17.3877 10.6375 17.186 10.3882 17.186Z" fill="#E5007E"/>
<path d="M13.8998 6.93111C13.7236 6.75633 13.4372 6.75544 13.2611 6.932L12.6224 7.5698C12.4472 7.74636 12.4472 8.03106 12.6242 8.20672C12.7128 8.29409 12.8275 8.33826 12.9431 8.33826C13.0588 8.33826 13.1753 8.29502 13.2638 8.20584L13.9015 7.56803C14.0768 7.39148 14.0768 7.10678 13.8998 6.93111Z" fill="#E5007E"/>
<path d="M15.3079 4.88284L14.2836 5.90735C14.1083 6.0838 14.1083 6.36831 14.2854 6.54387C14.3739 6.63211 14.4886 6.67533 14.6043 6.67533C14.7199 6.67533 14.8364 6.63123 14.924 6.54298L15.9484 5.51847C16.1237 5.34203 16.1237 5.05751 15.9466 4.88196C15.7704 4.7064 15.4841 4.70729 15.3079 4.88284Z" fill="#E5007E"/>
<path d="M17.9944 2.83126C17.8183 2.65571 17.5319 2.65571 17.3558 2.83215L16.3314 3.85666C16.1562 4.0331 16.1562 4.31762 16.3332 4.49318C16.4218 4.58142 16.5365 4.62463 16.6521 4.62463C16.7678 4.62463 16.8834 4.58053 16.9719 4.49229L17.9963 3.46778C18.1715 3.2913 18.1715 3.00682 17.9944 2.83126Z" fill="#E5007E"/>
<path d="M19.6548 1.16772C19.4786 0.992944 19.1923 0.992944 19.0161 1.16954L18.3793 1.80735C18.204 1.9839 18.204 2.26856 18.3811 2.44422C18.4696 2.53252 18.5843 2.57576 18.7 2.57576C18.8156 2.57576 18.9321 2.53163 19.0197 2.44245L19.6566 1.80464C19.8318 1.62805 19.8318 1.34339 19.6548 1.16772Z" fill="#E5007E"/>
<path d="M8.16989 12.6786C8.00276 12.4931 7.71643 12.4778 7.53305 12.6426C7.3876 12.7732 3.95407 15.8795 2.72197 21.1341C2.66506 21.3772 2.81593 21.6194 3.05889 21.6761C3.09412 21.6842 3.12846 21.6878 3.16187 21.6878C3.36783 21.6878 3.55299 21.5482 3.60177 21.3403C4.76706 16.372 8.10214 13.3449 8.13555 13.3143C8.32071 13.1495 8.33697 12.8641 8.16989 12.6786Z" fill="#E5007E"/>
<path d="M4.32057 3.74914L3.68191 3.11222C3.50576 2.93655 3.21939 2.93655 3.04324 3.11222C2.8671 3.28789 2.8671 3.57347 3.04324 3.74914L3.68191 4.38694C3.77045 4.47431 3.88604 4.51848 4.00168 4.51848C4.11732 4.51848 4.23292 4.47435 4.32057 4.38605C4.49672 4.21039 4.49672 3.9248 4.32057 3.74914Z" fill="#E5007E"/>
<path d="M6.45005 5.87206L5.38503 4.81062C5.20889 4.63507 4.92252 4.63507 4.74637 4.81062C4.57022 4.98618 4.57022 5.27158 4.74637 5.44714L5.8105 6.50857C5.89904 6.59589 6.01464 6.64003 6.13027 6.64003C6.24591 6.64003 6.36151 6.59593 6.45005 6.50857C6.6262 6.33302 6.6262 6.04761 6.45005 5.87206Z" fill="#E5007E"/>
<path d="M8.1526 7.56994L7.51394 6.93302C7.33779 6.75735 7.05142 6.75735 6.87527 6.93302C6.69913 7.10869 6.69913 7.39427 6.87527 7.56994L7.51394 8.20686C7.60248 8.29423 7.71808 8.3384 7.83371 8.3384C7.94935 8.3384 8.06495 8.29516 8.1526 8.20686C8.32875 8.03115 8.32875 7.74561 8.1526 7.56994Z" fill="#E5007E"/>
<path d="M13.262 12.6615C13.0858 12.4859 12.7995 12.4859 12.6233 12.6615C12.4472 12.837 12.4472 13.1224 12.6233 13.298L13.9006 14.571C13.9891 14.6583 14.1047 14.7024 14.2204 14.7024C14.336 14.7024 14.4516 14.6583 14.5393 14.571C14.7154 14.3954 14.7154 14.11 14.5393 13.9344L13.262 12.6615Z" fill="#E5007E"/>
<path d="M17.7334 17.1177L16.4552 15.8438C16.2791 15.6683 15.9927 15.6683 15.8166 15.8438C15.6404 16.0194 15.6404 16.3048 15.8166 16.4803L17.0948 17.7543C17.1833 17.8416 17.2989 17.8857 17.4146 17.8857C17.5302 17.8857 17.6458 17.8416 17.7334 17.7543C17.9096 17.5787 17.9096 17.2933 17.7334 17.1177Z" fill="#E5007E"/>
<path d="M14.9563 8.48251C14.8569 8.25373 14.5913 8.14928 14.3628 8.24655L13.5327 8.6014C13.3032 8.69956 13.1975 8.96436 13.2951 9.19314C13.3692 9.36425 13.5363 9.46604 13.7106 9.46604C13.7702 9.46604 13.8307 9.45523 13.8886 9.4291L14.7187 9.07425C14.9482 8.97605 15.0539 8.71125 14.9563 8.48251Z" fill="#E5007E"/>
<path d="M17.7239 7.30223C17.6246 7.07162 17.3581 6.96622 17.1305 7.06529L15.7465 7.65715C15.5171 7.75533 15.4114 8.02018 15.509 8.24813C15.583 8.41928 15.7501 8.52109 15.9245 8.52109C15.9841 8.52109 16.0446 8.50939 16.1024 8.48507L17.4863 7.8932C17.7158 7.79498 17.8215 7.53013 17.7239 7.30223Z" fill="#E5007E"/>
<path d="M19.9368 6.35583C19.8374 6.12616 19.5709 6.0226 19.3433 6.11894L18.5132 6.47379C18.2837 6.57195 18.178 6.83674 18.2756 7.06553C18.3496 7.23664 18.5168 7.33843 18.6911 7.33843C18.7516 7.33843 18.8112 7.32674 18.869 7.30242L19.6992 6.94757C19.9286 6.84941 20.0343 6.58461 19.9368 6.35583Z" fill="#E5007E"/>
<path d="M7.49687 11.7145C7.42188 11.4786 7.17079 11.3471 6.93049 11.4218C6.76518 11.475 2.8583 12.7535 0.0643229 17.4049C-0.0639347 17.6191 0.00559278 17.8946 0.21968 18.0225C0.29196 18.0666 0.372327 18.0865 0.451848 18.0865C0.605427 18.0865 0.754475 18.0081 0.839373 17.8668C3.44907 13.5234 7.16803 12.2917 7.20508 12.28C7.44178 12.2034 7.57275 11.9503 7.49687 11.7145Z" fill="#E5007E"/>
<path d="M6.71887 0.766277L6.54091 0.35287C6.44335 0.1232 6.17595 0.0205238 5.94831 0.116909C5.71885 0.214182 5.61316 0.478978 5.71165 0.707762L5.89051 1.12117C5.96368 1.29228 6.13081 1.39407 6.30514 1.39407C6.36476 1.39407 6.42438 1.38238 6.48311 1.35806C6.71257 1.25986 6.81825 0.995061 6.71887 0.766277Z" fill="#E5007E"/>
<path d="M7.65049 2.92884L7.33973 2.20764C7.24128 1.97893 6.97478 1.8754 6.74714 1.97175C6.51768 2.06988 6.41199 2.33459 6.51048 2.5633L6.82124 3.28362C6.89441 3.45467 7.06154 3.55643 7.23586 3.55643C7.29548 3.55643 7.35599 3.54474 7.41383 3.52043C7.64325 3.42222 7.74894 3.15751 7.65049 2.92884Z" fill="#E5007E"/>
<path d="M8.58091 5.09032L8.27015 4.37C8.1717 4.14041 7.90613 4.03688 7.67756 4.13412C7.4481 4.23225 7.34241 4.49696 7.4409 4.72567L7.75166 5.44598C7.82483 5.61704 7.99196 5.7188 8.16628 5.7188C8.2259 5.7188 8.28641 5.70711 8.34425 5.68187C8.57371 5.58374 8.6794 5.3181 8.58091 5.09032Z" fill="#E5007E"/>
<path d="M9.38021 6.94751L9.20317 6.5341C9.10561 6.30443 8.83733 6.19817 8.61058 6.29633C8.38112 6.3936 8.27454 6.65839 8.3721 6.88718L8.54914 7.30058C8.62231 7.47169 8.78944 7.57437 8.96465 7.57437C9.02338 7.57437 9.08478 7.56356 9.14169 7.53836C9.37119 7.4402 9.47777 7.17629 9.38021 6.94751Z" fill="#E5007E"/>
<path d="M12.5836 14.394L12.2277 13.5666C12.1293 13.3378 11.8655 13.2334 11.6342 13.3297C11.4048 13.4279 11.2991 13.6926 11.3967 13.9213L11.7526 14.7487C11.8266 14.9198 11.9937 15.0215 12.1681 15.0215C12.2268 15.0215 12.2882 15.0098 12.346 14.9855C12.5746 14.8874 12.6812 14.6227 12.5836 14.394Z" fill="#E5007E"/>
<path d="M13.7695 17.1522L13.176 15.773C13.0775 15.5434 12.8092 15.4399 12.5825 15.5362C12.353 15.6343 12.2473 15.899 12.3449 16.1276L12.9384 17.5069C13.0124 17.6779 13.1796 17.7797 13.3539 17.7797C13.4144 17.7797 13.474 17.768 13.5319 17.7437C13.7613 17.6456 13.867 17.3809 13.7695 17.1522Z" fill="#E5007E"/>
<path d="M14.7184 19.3581L14.3625 18.5307C14.264 18.3029 14.0012 18.1966 13.769 18.2939C13.5396 18.392 13.4339 18.6567 13.5314 18.8854L13.8873 19.7129C13.9614 19.8839 14.1285 19.9857 14.3028 19.9857C14.3616 19.9857 14.423 19.9749 14.4808 19.9497C14.7094 19.8515 14.816 19.5868 14.7184 19.3581Z" fill="#E5007E"/>
<path d="M12.5685 4.99892C12.3381 4.90621 12.0753 5.01964 11.9822 5.2501L11.311 6.92193C11.218 7.15239 11.33 7.41437 11.5622 7.50713C11.6173 7.52963 11.6742 7.53954 11.7302 7.53954C11.91 7.53954 12.0789 7.43239 12.1484 7.25595L12.8196 5.58412C12.9126 5.35366 12.8006 5.09168 12.5685 4.99892Z" fill="#E5007E"/>
<path d="M13.4157 2.88981C13.1872 2.79705 12.9225 2.90872 12.8295 3.14021L12.6533 3.57882C12.5603 3.80938 12.6723 4.07147 12.9045 4.16427C12.9596 4.18677 13.0156 4.19669 13.0725 4.19669C13.2513 4.19669 13.4203 4.09043 13.4907 3.91387L13.6669 3.47526C13.7599 3.2447 13.6479 2.9826 13.4157 2.88981Z" fill="#E5007E"/>
<path d="M8.81164 14.3642C8.58311 14.2714 8.31842 14.3831 8.22539 14.6145L7.55421 16.2853C7.46118 16.5149 7.57318 16.7769 7.80535 16.8696C7.86044 16.8912 7.91735 16.902 7.97337 16.902C8.15222 16.902 8.32206 16.794 8.39252 16.6184L9.06277 14.9484C9.1558 14.7189 9.0438 14.4569 8.81164 14.3642Z" fill="#E5007E"/>
<path d="M3.40677 7.16603L2.98761 6.99845C2.75815 6.90656 2.49351 7.01826 2.40137 7.24982C2.30923 7.48138 2.42123 7.74356 2.6534 7.83545L3.07162 8.00214C3.12671 8.02465 3.18362 8.03458 3.23964 8.03458C3.4185 8.03458 3.58834 7.92828 3.65879 7.75166C3.75093 7.52103 3.63894 7.25886 3.40677 7.16603Z" fill="#E5007E"/>
<path d="M5.43242 7.9738L4.75764 7.7044C4.5264 7.61162 4.26354 7.72421 4.1714 7.95488C4.07837 8.18551 4.19037 8.44769 4.42254 8.54051L5.09643 8.80991C5.15152 8.83242 5.20843 8.84234 5.26445 8.84234C5.4433 8.84234 5.61314 8.73512 5.6836 8.55943C5.77659 8.32787 5.66459 8.0657 5.43242 7.9738Z" fill="#E5007E"/>
<path d="M7.20216 8.67973L6.783 8.51215C6.55176 8.41755 6.2889 8.53107 6.19582 8.76263C6.1028 8.99326 6.21479 9.25544 6.44603 9.34827L6.86519 9.51584C6.92121 9.53835 6.97719 9.54828 7.0341 9.54828C7.21295 9.54828 7.38279 9.44105 7.45232 9.26536C7.54543 9.03469 7.43344 8.77252 7.20216 8.67973Z" fill="#E5007E"/>
<path d="M14.7502 11.6876L13.911 11.3526C13.6824 11.2607 13.4177 11.3715 13.3247 11.603C13.2317 11.8335 13.3437 12.0956 13.5759 12.1884L14.4151 12.5235C14.4701 12.5451 14.5262 12.5559 14.5831 12.5559C14.7619 12.5559 14.9308 12.4487 15.0013 12.2731C15.0943 12.0425 14.9823 11.7804 14.7502 11.6876Z" fill="#E5007E"/>
<path d="M17.5447 12.8034L16.1463 12.2458C15.9151 12.1521 15.6522 12.2656 15.5601 12.4962C15.467 12.726 15.579 12.9881 15.8112 13.0809L17.2095 13.6385C17.2646 13.6601 17.3215 13.6709 17.3776 13.6709C17.5573 13.6709 17.7263 13.5637 17.7958 13.3881C17.8888 13.1583 17.7768 12.8962 17.5447 12.8034Z" fill="#E5007E"/>
<path d="M19.7824 13.6944L18.9442 13.3603C18.7138 13.2675 18.4509 13.381 18.3579 13.6107C18.2649 13.8403 18.3769 14.1024 18.6091 14.1952L19.4464 14.5294C19.5015 14.551 19.5584 14.5618 19.6145 14.5618C19.7933 14.5618 19.9632 14.4546 20.0336 14.279C20.1266 14.0493 20.0146 13.7872 19.7824 13.6944Z" fill="#E5007E"/>
</g>
<defs>
<clipPath id="clip0">
<rect width="60" height="60" fill="white"/>
</clipPath>
</defs>
</svg>
