<svg width="20" height="20" viewBox="0 0 20 20" fill="none" xmlns="http://www.w3.org/2000/svg">
<path d="M19.3191 14.6484L16.9575 12.2748C16.4861 11.8005 15.8353 11.5617 15.1726 11.6201C14.5179 11.6775 13.9279 12.019 13.5539 12.5571C13.5429 12.573 13.5325 12.5891 13.5227 12.6056L13.1345 13.2602C12.2493 13.0214 10.4176 12.3886 9.02034 10.983C7.63219 9.58639 7.00699 7.7461 6.77117 6.85739L7.42731 6.47577C7.44445 6.46575 7.46123 6.45516 7.47764 6.44394C8.01796 6.07322 8.36304 5.48529 8.42449 4.83094C8.48662 4.1684 8.25195 3.5164 7.7803 3.04193L5.41867 0.668292C4.72993 -0.024705 3.69279 -0.197456 2.8381 0.238118C1.35648 0.993189 0.420848 2.34563 0.132492 4.14916C-0.405107 7.51149 1.40912 11.8588 4.75457 15.2246C7.72567 18.2139 11.4791 20 14.6407 20C15.0393 20 15.4285 19.9716 15.8055 19.9137C17.6114 19.6362 18.9699 18.7088 19.7338 17.2318C20.1747 16.3797 20.0081 15.3416 19.3191 14.6484ZM18.3148 16.4978C17.7875 17.5169 16.8616 18.1349 15.5628 18.3346C12.7276 18.7704 8.83925 17.068 5.8877 14.0984C2.9363 11.1291 1.25745 7.2322 1.71011 4.4015C1.91746 3.10458 2.54105 2.18273 3.56355 1.66165C3.64477 1.62023 3.73421 1.60026 3.82449 1.60026C3.99048 1.60026 4.15951 1.66789 4.2857 1.79487L6.64744 4.16851C6.78359 4.30555 6.85154 4.49257 6.83377 4.68173C6.82407 4.78459 6.77976 4.97433 6.59322 5.11269L5.46051 5.77145C5.17399 5.93801 5.02012 6.26427 5.0738 6.59137C5.09535 6.72276 5.62818 9.83658 7.88715 12.1093C10.146 14.3819 13.2578 14.9352 13.3892 14.9576C13.7154 15.0133 14.0421 14.8622 14.2108 14.5776L14.8793 13.4502C15.0188 13.264 15.2091 13.2207 15.3121 13.2116C15.5015 13.1949 15.688 13.2641 15.8245 13.4014L18.1861 15.775C18.3808 15.9707 18.4336 16.2679 18.3148 16.4978Z" fill="white"/>
</svg>
